<svg width="28" height="28" viewBox="0 0 28 28" fill="none" xmlns="http://www.w3.org/2000/svg">
<g clip-path="url(#clip0_559_122)">
<path d="M23.9167 6.125H3.5L16.3333 12.25L19.5417 26.25L23.9167 6.125Z" fill="#3576EE" stroke="#3576EE" stroke-width="0.291667" stroke-dasharray="70.76 70.76"/>
<path d="M3.49935 6.12435H23.916ZM3.49935 6.12435L19.541 26.2493ZM3.49935 6.12435L26.541 17.2077ZM3.49935 6.12435C4.76324 12.1521 7.40768 24.616 7.87435 26.2493ZM3.49935 6.12435L1.16602 17.2077ZM3.49935 6.12435L13.7077 1.16602ZM23.916 6.12435L19.541 26.2493ZM23.916 6.12435L7.87435 26.2493ZM23.916 6.12435L1.16602 17.2077ZM23.916 6.12435L13.7077 1.16602ZM23.916 6.12435L26.541 17.2077ZM19.541 26.2493L16.6243 13.7077L13.7077 1.16602M19.541 26.2493L1.16602 17.2077ZM19.541 26.2493L26.541 17.2077ZM19.541 26.2493H7.87435ZM7.87435 26.2493L26.541 17.2077ZM7.87435 26.2493L13.7077 1.16602ZM7.87435 26.2493C7.64102 26.2493 3.30491 20.2216 1.16602 17.2077ZM26.541 17.2077L13.7077 1.16602ZM26.541 17.2077H1.16602ZM1.16602 17.2077L13.7077 1.16602Z" fill="black"/>
<path d="M3.49935 6.12435H23.916M3.49935 6.12435L19.541 26.2493M3.49935 6.12435L26.541 17.2077M3.49935 6.12435C4.76324 12.1521 7.40768 24.616 7.87435 26.2493M3.49935 6.12435L1.16602 17.2077M3.49935 6.12435L13.7077 1.16602M23.916 6.12435L19.541 26.2493M23.916 6.12435L7.87435 26.2493M23.916 6.12435L1.16602 17.2077M23.916 6.12435L13.7077 1.16602M23.916 6.12435L26.541 17.2077M19.541 26.2493L1.16602 17.2077M19.541 26.2493L26.541 17.2077M19.541 26.2493H7.87435M19.541 26.2493L16.6243 13.7077L13.7077 1.16602M26.541 17.2077L7.87435 26.2493M26.541 17.2077L13.7077 1.16602M26.541 17.2077H1.16602M7.87435 26.2493L13.7077 1.16602M7.87435 26.2493C7.64102 26.2493 3.30491 20.2216 1.16602 17.2077M1.16602 17.2077L13.7077 1.16602" stroke="#FFAA00" stroke-width="0.291667" stroke-dasharray="403.91 403.91"/>
<path d="M13.7081 0.221547L12.4707 1.45898L13.7081 2.69642L14.9456 1.45898L13.7081 0.221547Z" fill="#3576EE"/>
<path d="M1.23744 15.7508L0 16.9883L1.23744 18.2257L2.47487 16.9883L1.23744 15.7508Z" fill="#3576EE"/>
<path d="M19.3214 25.0829L18.084 26.3203L19.3214 27.5577L20.5589 26.3203L19.3214 25.0829Z" fill="#3576EE"/>
<path d="M8.23744 25.0829L7 26.3203L8.23744 27.5577L9.47487 26.3203L8.23744 25.0829Z" fill="#3576EE"/>
<path d="M23.9874 4.66686L22.75 5.9043L23.9874 7.14173L25.2249 5.9043L23.9874 4.66686Z" fill="#3576EE"/>
<path d="M3.57142 4.66686L2.33398 5.9043L3.57142 7.14173L4.80886 5.9043L3.57142 4.66686Z" fill="#3576EE"/>
<path d="M26.3214 15.7508L25.084 16.9883L26.3214 18.2257L27.5589 16.9883L26.3214 15.7508Z" fill="#3576EE"/>
</g>
<defs>
<clipPath id="clip0_559_122">
<rect width="28" height="28" fill="white"/>
</clipPath>
</defs>
</svg>
